<svg id="unsatisfied" enable-background="new 0 0 300 300" height="512" viewBox="0 0 300 300" width="512" xmlns="http://www.w3.org/2000/svg"><path d="m231.025 72.676c-20.395-21.365-49.156-34.676-81.025-34.676-61.856 0-112 50.144-112 112s50.144 112 112 112 112-50.144 112-112c0-20.473-5.493-39.662-15.085-56.176" fill="#f6d831"/><g fill="#5c128d"><path d="m150 270c-66.172 0-120-53.828-120-120s53.828-120 120-120c33.117 0 63.945 13.195 86.812 37.156 3.047 3.195 2.93 8.258-.266 11.312-3.188 3.047-8.266 2.938-11.312-.266-19.812-20.764-46.531-32.202-75.234-32.202-57.344 0-104 46.656-104 104s46.656 104 104 104 104-46.656 104-104c0-18.359-4.844-36.391-14-52.148-2.227-3.82-.922-8.719 2.891-10.938 3.812-2.227 8.719-.93 10.938 2.891 10.577 18.203 16.171 39.015 16.171 60.195 0 66.172-53.828 120-120 120z"/><path d="m102 150c-13.234 0-24-10.766-24-24 0-4.422 3.578-8 8-8s8 3.578 8 8c0 4.414 3.586 8 8 8s8-3.586 8-8c0-4.422 3.578-8 8-8s8 3.578 8 8c0 13.234-10.766 24-24 24z"/><path d="m174 150c-13.234 0-24-10.766-24-24 0-4.422 3.578-8 8-8s8 3.578 8 8c0 4.414 3.586 8 8 8s8-3.586 8-8c0-4.422 3.578-8 8-8s8 3.578 8 8c0 13.234-10.766 24-24 24z"/></g><path d="m209.883 93.516c-1.953 0-3.906-.703-5.445-2.141-7.141-6.633-15.312-11.844-24.281-15.5-4.094-1.664-6.062-6.328-4.391-10.422 1.656-4.102 6.352-6.07 10.422-4.391 10.766 4.383 20.57 10.641 29.141 18.594 3.234 3 3.422 8.062.414 11.305-1.571 1.695-3.712 2.555-5.86 2.555z" fill="#fff"/><path d="m201.75 214c-2.578 0-5.109-1.242-6.656-3.547-11.93-17.82-31.774-28.453-53.094-28.453s-41.164 10.633-53.094 28.453c-2.469 3.68-7.43 4.648-11.102 2.195-3.672-2.461-4.656-7.43-2.195-11.102 14.907-22.257 39.727-35.546 66.391-35.546s51.484 13.289 66.391 35.547c2.461 3.672 1.477 8.641-2.195 11.102-1.368.913-2.915 1.351-4.446 1.351z" fill="#5c128d"/></svg>