<svg id="very-satisfied" enable-background="new 0 0 300 300" height="512" viewBox="0 0 300 300" width="512" xmlns="http://www.w3.org/2000/svg"><circle cx="148.75" cy="150" fill="#f6d831" r="112"/><path d="m150 270c-66.172 0-120-53.828-120-120s53.828-120 120-120c33.117 0 63.945 13.195 86.812 37.156 3.047 3.195 2.93 8.258-.266 11.312-3.195 3.047-8.258 2.938-11.312-.266-19.812-20.764-46.531-32.202-75.234-32.202-57.344 0-104 46.656-104 104s46.656 104 104 104 104-46.656 104-104c0-18.359-4.844-36.391-14-52.148-2.227-3.82-.922-8.719 2.891-10.938 3.82-2.227 8.711-.93 10.938 2.891 10.577 18.203 16.171 39.015 16.171 60.195 0 66.172-53.828 120-120 120z" fill="#5c128d"/><path d="m74.185 174c9.895 27.945 36.479 48 67.815 48s57.921-20.055 67.815-48z" fill="#e86436"/><g fill="#5c128d"><path d="m142 230c-33.781 0-64.062-21.43-75.352-53.328-.867-2.453-.492-5.172 1.008-7.289 1.5-2.125 3.938-3.383 6.531-3.383h135.625c2.594 0 5.031 1.258 6.531 3.383 1.5 2.117 1.875 4.836 1.008 7.289-11.289 31.898-41.57 53.328-75.351 53.328zm-55.352-48c11.281 19.516 32.297 32 55.352 32s44.07-12.484 55.352-32z"/><path d="m118 142c-4.422 0-8-3.578-8-8 0-4.414-3.586-8-8-8s-8 3.586-8 8c0 4.422-3.578 8-8 8s-8-3.578-8-8c0-13.234 10.766-24 24-24s24 10.766 24 24c0 4.422-3.578 8-8 8z"/><path d="m190 142c-4.422 0-8-3.578-8-8 0-4.414-3.586-8-8-8s-8 3.586-8 8c0 4.422-3.578 8-8 8s-8-3.578-8-8c0-13.234 10.766-24 24-24s24 10.766 24 24c0 4.422-3.578 8-8 8z"/></g><path d="m209.883 93.516c-1.953 0-3.906-.703-5.445-2.141-7.141-6.633-15.312-11.844-24.281-15.5-4.094-1.664-6.062-6.328-4.391-10.422 1.656-4.102 6.344-6.07 10.422-4.391 10.766 4.383 20.57 10.641 29.141 18.594 3.234 3 3.422 8.062.414 11.305-1.571 1.695-3.712 2.555-5.86 2.555z" fill="#fff"/></svg>